<mxfile host="app.diagrams.net" agent="Mozilla/5.0 (Windows NT 10.0; Win64; x64) AppleWebKit/537.36 (KHTML, like Gecko) Chrome/137.0.0.0 Safari/537.36" version="28.0.4">
  <diagram name="Page-1" id="aSveaPG9rJPrMY9i9yj5">
    <mxGraphModel dx="1992" dy="558" grid="1" gridSize="10" guides="1" tooltips="1" connect="1" arrows="1" fold="1" page="1" pageScale="1" pageWidth="827" pageHeight="1169" math="0" shadow="0">
      <root>
        <mxCell id="0" />
        <mxCell id="1" parent="0" />
        <mxCell id="YNtyo9B61ltwxZMHWQvP-1" value="ทบทวนสัญลักษณ์" style="swimlane;fontFamily=Sarabun;fontSource=https%3A%2F%2Ffonts.googleapis.com%2Fcss%3Ffamily%3DSarabun;" vertex="1" parent="1">
          <mxGeometry x="-720" y="20" width="640" height="290" as="geometry" />
        </mxCell>
        <mxCell id="YNtyo9B61ltwxZMHWQvP-2" value="&lt;font data-font-src=&quot;https://fonts.googleapis.com/css?family=Sarabun&quot; face=&quot;Sarabun&quot;&gt;เริ่มต้น&lt;/font&gt;" style="ellipse;whiteSpace=wrap;html=1;" vertex="1" parent="YNtyo9B61ltwxZMHWQvP-1">
          <mxGeometry x="20" y="40" width="130" height="30" as="geometry" />
        </mxCell>
        <mxCell id="YNtyo9B61ltwxZMHWQvP-3" value="" style="endArrow=classic;html=1;rounded=0;" edge="1" parent="YNtyo9B61ltwxZMHWQvP-1">
          <mxGeometry width="50" height="50" relative="1" as="geometry">
            <mxPoint x="84.5" y="70" as="sourcePoint" />
            <mxPoint x="84.5" y="120" as="targetPoint" />
          </mxGeometry>
        </mxCell>
        <mxCell id="YNtyo9B61ltwxZMHWQvP-4" value="&lt;font face=&quot;Sarabun&quot;&gt;สิ้นสุด&lt;/font&gt;" style="ellipse;whiteSpace=wrap;html=1;" vertex="1" parent="YNtyo9B61ltwxZMHWQvP-1">
          <mxGeometry x="150" y="90" width="130" height="30" as="geometry" />
        </mxCell>
        <mxCell id="YNtyo9B61ltwxZMHWQvP-5" value="" style="endArrow=classic;html=1;rounded=0;" edge="1" parent="YNtyo9B61ltwxZMHWQvP-1">
          <mxGeometry width="50" height="50" relative="1" as="geometry">
            <mxPoint x="214.5" y="40" as="sourcePoint" />
            <mxPoint x="214.5" y="90" as="targetPoint" />
          </mxGeometry>
        </mxCell>
        <mxCell id="YNtyo9B61ltwxZMHWQvP-6" value="กระบวนการ" style="rounded=0;whiteSpace=wrap;html=1;fontFamily=Sarabun;fontSource=https%3A%2F%2Ffonts.googleapis.com%2Fcss%3Ffamily%3DSarabun;" vertex="1" parent="YNtyo9B61ltwxZMHWQvP-1">
          <mxGeometry x="320" y="70" width="120" height="30" as="geometry" />
        </mxCell>
        <mxCell id="YNtyo9B61ltwxZMHWQvP-7" value="" style="endArrow=classic;html=1;rounded=0;" edge="1" parent="YNtyo9B61ltwxZMHWQvP-1">
          <mxGeometry width="50" height="50" relative="1" as="geometry">
            <mxPoint x="379" y="40" as="sourcePoint" />
            <mxPoint x="379.5" y="70" as="targetPoint" />
          </mxGeometry>
        </mxCell>
        <mxCell id="YNtyo9B61ltwxZMHWQvP-8" value="" style="endArrow=classic;html=1;rounded=0;" edge="1" parent="YNtyo9B61ltwxZMHWQvP-1">
          <mxGeometry width="50" height="50" relative="1" as="geometry">
            <mxPoint x="379.75" y="100" as="sourcePoint" />
            <mxPoint x="380.25" y="130" as="targetPoint" />
          </mxGeometry>
        </mxCell>
        <mxCell id="YNtyo9B61ltwxZMHWQvP-9" value="ประโยคเงื่อนไข" style="rhombus;whiteSpace=wrap;html=1;fontFamily=Sarabun;fontSource=https%3A%2F%2Ffonts.googleapis.com%2Fcss%3Ffamily%3DSarabun;" vertex="1" parent="YNtyo9B61ltwxZMHWQvP-1">
          <mxGeometry x="490" y="60" width="100" height="60" as="geometry" />
        </mxCell>
        <mxCell id="YNtyo9B61ltwxZMHWQvP-10" value="" style="endArrow=classic;html=1;rounded=0;" edge="1" parent="YNtyo9B61ltwxZMHWQvP-1">
          <mxGeometry width="50" height="50" relative="1" as="geometry">
            <mxPoint x="539.71" y="30" as="sourcePoint" />
            <mxPoint x="540.21" y="60" as="targetPoint" />
          </mxGeometry>
        </mxCell>
        <mxCell id="YNtyo9B61ltwxZMHWQvP-11" value="" style="endArrow=classic;html=1;rounded=0;" edge="1" parent="YNtyo9B61ltwxZMHWQvP-1">
          <mxGeometry width="50" height="50" relative="1" as="geometry">
            <mxPoint x="539.71" y="120" as="sourcePoint" />
            <mxPoint x="540" y="175" as="targetPoint" />
          </mxGeometry>
        </mxCell>
        <mxCell id="YNtyo9B61ltwxZMHWQvP-12" value="จริง" style="edgeLabel;html=1;align=center;verticalAlign=middle;resizable=0;points=[];fontFamily=Sarabun;fontSource=https%3A%2F%2Ffonts.googleapis.com%2Fcss%3Ffamily%3DSarabun;" vertex="1" connectable="0" parent="YNtyo9B61ltwxZMHWQvP-11">
          <mxGeometry x="-0.4142" y="-1" relative="1" as="geometry">
            <mxPoint as="offset" />
          </mxGeometry>
        </mxCell>
        <mxCell id="YNtyo9B61ltwxZMHWQvP-13" value="" style="endArrow=classic;html=1;rounded=0;exitX=1;exitY=0.5;exitDx=0;exitDy=0;" edge="1" parent="YNtyo9B61ltwxZMHWQvP-1" source="YNtyo9B61ltwxZMHWQvP-9">
          <mxGeometry width="50" height="50" relative="1" as="geometry">
            <mxPoint x="620" y="95" as="sourcePoint" />
            <mxPoint x="610" y="175" as="targetPoint" />
            <Array as="points">
              <mxPoint x="610" y="90" />
            </Array>
          </mxGeometry>
        </mxCell>
        <mxCell id="YNtyo9B61ltwxZMHWQvP-14" value="&lt;font data-font-src=&quot;https://fonts.googleapis.com/css?family=Sarabun&quot; face=&quot;Sarabun&quot;&gt;เท็จ&lt;/font&gt;" style="edgeLabel;html=1;align=center;verticalAlign=middle;resizable=0;points=[];" vertex="1" connectable="0" parent="YNtyo9B61ltwxZMHWQvP-13">
          <mxGeometry x="-0.0019" y="-2" relative="1" as="geometry">
            <mxPoint as="offset" />
          </mxGeometry>
        </mxCell>
        <mxCell id="YNtyo9B61ltwxZMHWQvP-15" value="&lt;font data-font-src=&quot;https://fonts.googleapis.com/css?family=Sarabun&quot; face=&quot;Sarabun&quot;&gt;ฟังก์ชัน/โมดูล&lt;/font&gt;" style="shape=process;whiteSpace=wrap;html=1;backgroundOutline=1;" vertex="1" parent="YNtyo9B61ltwxZMHWQvP-1">
          <mxGeometry x="25" y="180" width="120" height="30" as="geometry" />
        </mxCell>
        <mxCell id="YNtyo9B61ltwxZMHWQvP-16" value="" style="endArrow=classic;html=1;rounded=0;" edge="1" parent="YNtyo9B61ltwxZMHWQvP-1">
          <mxGeometry width="50" height="50" relative="1" as="geometry">
            <mxPoint x="84.70999999999998" y="150" as="sourcePoint" />
            <mxPoint x="85.20999999999998" y="180" as="targetPoint" />
          </mxGeometry>
        </mxCell>
        <mxCell id="YNtyo9B61ltwxZMHWQvP-17" value="" style="endArrow=classic;html=1;rounded=0;" edge="1" parent="YNtyo9B61ltwxZMHWQvP-1">
          <mxGeometry width="50" height="50" relative="1" as="geometry">
            <mxPoint x="84.70999999999998" y="210" as="sourcePoint" />
            <mxPoint x="85.20999999999998" y="240" as="targetPoint" />
          </mxGeometry>
        </mxCell>
        <mxCell id="YNtyo9B61ltwxZMHWQvP-18" value="" style="strokeWidth=2;html=1;shape=mxgraph.flowchart.start_2;whiteSpace=wrap;" vertex="1" parent="YNtyo9B61ltwxZMHWQvP-1">
          <mxGeometry x="205" y="185" width="20" height="20" as="geometry" />
        </mxCell>
        <mxCell id="YNtyo9B61ltwxZMHWQvP-19" value="" style="endArrow=classic;html=1;rounded=0;" edge="1" parent="YNtyo9B61ltwxZMHWQvP-1">
          <mxGeometry width="50" height="50" relative="1" as="geometry">
            <mxPoint x="214.70999999999998" y="155" as="sourcePoint" />
            <mxPoint x="215.20999999999998" y="185" as="targetPoint" />
          </mxGeometry>
        </mxCell>
        <mxCell id="YNtyo9B61ltwxZMHWQvP-20" value="" style="endArrow=classic;html=1;rounded=0;entryX=0;entryY=0.5;entryDx=0;entryDy=0;entryPerimeter=0;" edge="1" parent="YNtyo9B61ltwxZMHWQvP-1" target="YNtyo9B61ltwxZMHWQvP-18">
          <mxGeometry width="50" height="50" relative="1" as="geometry">
            <mxPoint x="189.99999999999997" y="155" as="sourcePoint" />
            <mxPoint x="190.49999999999997" y="185" as="targetPoint" />
            <Array as="points">
              <mxPoint x="190" y="180" />
            </Array>
          </mxGeometry>
        </mxCell>
        <mxCell id="YNtyo9B61ltwxZMHWQvP-21" value="" style="endArrow=classic;html=1;rounded=0;entryX=1;entryY=0.5;entryDx=0;entryDy=0;entryPerimeter=0;" edge="1" parent="YNtyo9B61ltwxZMHWQvP-1" target="YNtyo9B61ltwxZMHWQvP-18">
          <mxGeometry width="50" height="50" relative="1" as="geometry">
            <mxPoint x="239.99999999999997" y="155" as="sourcePoint" />
            <mxPoint x="240.49999999999997" y="185" as="targetPoint" />
            <Array as="points">
              <mxPoint x="240" y="180" />
            </Array>
          </mxGeometry>
        </mxCell>
        <mxCell id="YNtyo9B61ltwxZMHWQvP-22" value="" style="endArrow=classic;html=1;rounded=0;" edge="1" parent="YNtyo9B61ltwxZMHWQvP-1">
          <mxGeometry width="50" height="50" relative="1" as="geometry">
            <mxPoint x="214.70999999999998" y="205" as="sourcePoint" />
            <mxPoint x="215.20999999999998" y="235" as="targetPoint" />
          </mxGeometry>
        </mxCell>
        <mxCell id="YNtyo9B61ltwxZMHWQvP-23" value="&lt;font data-font-src=&quot;https://fonts.googleapis.com/css?family=Sarabun&quot; face=&quot;Sarabun&quot;&gt;ตัวเชื่อม&lt;/font&gt;" style="text;html=1;align=center;verticalAlign=middle;resizable=0;points=[];autosize=1;strokeColor=none;fillColor=none;" vertex="1" parent="YNtyo9B61ltwxZMHWQvP-1">
          <mxGeometry x="220" y="190" width="60" height="30" as="geometry" />
        </mxCell>
        <mxCell id="YNtyo9B61ltwxZMHWQvP-24" value="" style="endArrow=classic;html=1;rounded=0;" edge="1" parent="YNtyo9B61ltwxZMHWQvP-1">
          <mxGeometry width="50" height="50" relative="1" as="geometry">
            <mxPoint x="353.71" y="165" as="sourcePoint" />
            <mxPoint x="354.21" y="195" as="targetPoint" />
          </mxGeometry>
        </mxCell>
        <mxCell id="YNtyo9B61ltwxZMHWQvP-25" value="" style="verticalLabelPosition=bottom;verticalAlign=top;html=1;shape=offPageConnector;rounded=0;size=0.5;" vertex="1" parent="YNtyo9B61ltwxZMHWQvP-1">
          <mxGeometry x="339" y="195" width="30" height="30" as="geometry" />
        </mxCell>
        <mxCell id="YNtyo9B61ltwxZMHWQvP-26" value="" style="endArrow=classic;html=1;rounded=0;" edge="1" parent="YNtyo9B61ltwxZMHWQvP-1">
          <mxGeometry width="50" height="50" relative="1" as="geometry">
            <mxPoint x="405.71" y="195" as="sourcePoint" />
            <mxPoint x="406.21" y="225" as="targetPoint" />
          </mxGeometry>
        </mxCell>
        <mxCell id="YNtyo9B61ltwxZMHWQvP-27" value="" style="verticalLabelPosition=bottom;verticalAlign=top;html=1;shape=offPageConnector;rounded=0;size=0.5;" vertex="1" parent="YNtyo9B61ltwxZMHWQvP-1">
          <mxGeometry x="391" y="165" width="30" height="30" as="geometry" />
        </mxCell>
        <mxCell id="YNtyo9B61ltwxZMHWQvP-28" value="หน้าต่อไป" style="text;html=1;align=center;verticalAlign=middle;resizable=0;points=[];autosize=1;strokeColor=none;fillColor=none;fontFamily=Sarabun;fontSource=https%3A%2F%2Ffonts.googleapis.com%2Fcss%3Ffamily%3DSarabun;" vertex="1" parent="YNtyo9B61ltwxZMHWQvP-1">
          <mxGeometry x="345" y="220" width="70" height="30" as="geometry" />
        </mxCell>
        <mxCell id="YNtyo9B61ltwxZMHWQvP-29" value="ก" style="text;html=1;align=center;verticalAlign=middle;resizable=0;points=[];autosize=1;strokeColor=none;fillColor=none;fontFamily=Sarabun;fontSource=https%3A%2F%2Ffonts.googleapis.com%2Fcss%3Ffamily%3DSarabun;" vertex="1" parent="YNtyo9B61ltwxZMHWQvP-1">
          <mxGeometry x="339" y="190" width="30" height="30" as="geometry" />
        </mxCell>
        <mxCell id="YNtyo9B61ltwxZMHWQvP-30" value="ก" style="text;html=1;align=center;verticalAlign=middle;resizable=0;points=[];autosize=1;strokeColor=none;fillColor=none;fontFamily=Sarabun;fontSource=https%3A%2F%2Ffonts.googleapis.com%2Fcss%3Ffamily%3DSarabun;" vertex="1" parent="YNtyo9B61ltwxZMHWQvP-1">
          <mxGeometry x="391" y="160" width="30" height="30" as="geometry" />
        </mxCell>
        <mxCell id="YNtyo9B61ltwxZMHWQvP-31" value="แสดงผล/รับค่า" style="shape=parallelogram;perimeter=parallelogramPerimeter;whiteSpace=wrap;html=1;fixedSize=1;fontFamily=Sarabun;fontSource=https%3A%2F%2Ffonts.googleapis.com%2Fcss%3Ffamily%3DSarabun;" vertex="1" parent="YNtyo9B61ltwxZMHWQvP-1">
          <mxGeometry x="450" y="210" width="120" height="30" as="geometry" />
        </mxCell>
        <mxCell id="YNtyo9B61ltwxZMHWQvP-32" value="" style="endArrow=classic;html=1;rounded=0;" edge="1" parent="YNtyo9B61ltwxZMHWQvP-1">
          <mxGeometry width="50" height="50" relative="1" as="geometry">
            <mxPoint x="509.71" y="180" as="sourcePoint" />
            <mxPoint x="510.21" y="210" as="targetPoint" />
          </mxGeometry>
        </mxCell>
        <mxCell id="YNtyo9B61ltwxZMHWQvP-33" value="" style="endArrow=classic;html=1;rounded=0;" edge="1" parent="YNtyo9B61ltwxZMHWQvP-1">
          <mxGeometry width="50" height="50" relative="1" as="geometry">
            <mxPoint x="509.71" y="240" as="sourcePoint" />
            <mxPoint x="510.21" y="270" as="targetPoint" />
          </mxGeometry>
        </mxCell>
        <mxCell id="YNtyo9B61ltwxZMHWQvP-34" value="แก้ไขโจทย์ปัญหา" style="swimlane;fontFamily=Sarabun;fontSource=https%3A%2F%2Ffonts.googleapis.com%2Fcss%3Ffamily%3DSarabun;" vertex="1" parent="1">
          <mxGeometry x="-720" y="630" width="700" height="2860" as="geometry" />
        </mxCell>
        <mxCell id="YNtyo9B61ltwxZMHWQvP-35" style="edgeStyle=orthogonalEdgeStyle;rounded=0;orthogonalLoop=1;jettySize=auto;html=1;" edge="1" parent="YNtyo9B61ltwxZMHWQvP-34" source="YNtyo9B61ltwxZMHWQvP-36" target="YNtyo9B61ltwxZMHWQvP-38">
          <mxGeometry relative="1" as="geometry" />
        </mxCell>
        <mxCell id="YNtyo9B61ltwxZMHWQvP-36" value="&lt;font style=&quot;font-size: 15px;&quot;&gt;เริ่มต้น&lt;/font&gt;" style="strokeWidth=1;html=1;shape=mxgraph.flowchart.terminator;whiteSpace=wrap;" vertex="1" parent="YNtyo9B61ltwxZMHWQvP-34">
          <mxGeometry x="255" y="40" width="130" height="60" as="geometry" />
        </mxCell>
        <mxCell id="YNtyo9B61ltwxZMHWQvP-37" value="" style="edgeStyle=orthogonalEdgeStyle;rounded=0;orthogonalLoop=1;jettySize=auto;html=1;" edge="1" parent="YNtyo9B61ltwxZMHWQvP-34" source="YNtyo9B61ltwxZMHWQvP-38" target="YNtyo9B61ltwxZMHWQvP-59">
          <mxGeometry relative="1" as="geometry" />
        </mxCell>
        <mxCell id="YNtyo9B61ltwxZMHWQvP-38" value="แสดง รายการสินค้าทั้งและราคา" style="rounded=0;whiteSpace=wrap;html=1;" vertex="1" parent="YNtyo9B61ltwxZMHWQvP-34">
          <mxGeometry x="230" y="130" width="180" height="60" as="geometry" />
        </mxCell>
        <mxCell id="YNtyo9B61ltwxZMHWQvP-39" value="" style="edgeStyle=orthogonalEdgeStyle;rounded=0;orthogonalLoop=1;jettySize=auto;html=1;" edge="1" parent="YNtyo9B61ltwxZMHWQvP-34" source="YNtyo9B61ltwxZMHWQvP-41">
          <mxGeometry relative="1" as="geometry">
            <mxPoint x="439.5" y="365" as="targetPoint" />
          </mxGeometry>
        </mxCell>
        <mxCell id="YNtyo9B61ltwxZMHWQvP-40" value="" style="edgeStyle=orthogonalEdgeStyle;rounded=0;orthogonalLoop=1;jettySize=auto;html=1;" edge="1" parent="YNtyo9B61ltwxZMHWQvP-34" source="YNtyo9B61ltwxZMHWQvP-41" target="YNtyo9B61ltwxZMHWQvP-46">
          <mxGeometry relative="1" as="geometry" />
        </mxCell>
        <mxCell id="YNtyo9B61ltwxZMHWQvP-41" value="สินค้าประเภทนํ้า" style="rhombus;whiteSpace=wrap;html=1;" vertex="1" parent="YNtyo9B61ltwxZMHWQvP-34">
          <mxGeometry x="266.63" y="300" width="120" height="110" as="geometry" />
        </mxCell>
        <mxCell id="YNtyo9B61ltwxZMHWQvP-42" value="" style="edgeStyle=orthogonalEdgeStyle;rounded=0;orthogonalLoop=1;jettySize=auto;html=1;exitX=0.5;exitY=1;exitDx=0;exitDy=0;" edge="1" parent="YNtyo9B61ltwxZMHWQvP-34" source="YNtyo9B61ltwxZMHWQvP-132" target="YNtyo9B61ltwxZMHWQvP-53">
          <mxGeometry relative="1" as="geometry">
            <mxPoint x="499.5" y="420" as="sourcePoint" />
          </mxGeometry>
        </mxCell>
        <mxCell id="YNtyo9B61ltwxZMHWQvP-44" value="no" style="text;html=1;align=center;verticalAlign=middle;whiteSpace=wrap;rounded=0;" vertex="1" parent="YNtyo9B61ltwxZMHWQvP-34">
          <mxGeometry x="385.75" y="370" width="60" height="30" as="geometry" />
        </mxCell>
        <mxCell id="YNtyo9B61ltwxZMHWQvP-46" value="แสดงรายการสินค้าประเภทนํ้าและราคา" style="whiteSpace=wrap;html=1;" vertex="1" parent="YNtyo9B61ltwxZMHWQvP-34">
          <mxGeometry x="255" y="440" width="120" height="60" as="geometry" />
        </mxCell>
        <mxCell id="YNtyo9B61ltwxZMHWQvP-47" value="yes" style="text;html=1;align=center;verticalAlign=middle;whiteSpace=wrap;rounded=0;" vertex="1" parent="YNtyo9B61ltwxZMHWQvP-34">
          <mxGeometry x="316.75" y="410" width="60" height="30" as="geometry" />
        </mxCell>
        <mxCell id="YNtyo9B61ltwxZMHWQvP-48" style="edgeStyle=orthogonalEdgeStyle;rounded=0;orthogonalLoop=1;jettySize=auto;html=1;entryX=0;entryY=0.5;entryDx=0;entryDy=0;" edge="1" parent="YNtyo9B61ltwxZMHWQvP-34" source="YNtyo9B61ltwxZMHWQvP-50" target="YNtyo9B61ltwxZMHWQvP-59">
          <mxGeometry relative="1" as="geometry">
            <Array as="points">
              <mxPoint x="157" y="850" />
              <mxPoint x="157" y="260" />
            </Array>
          </mxGeometry>
        </mxCell>
        <mxCell id="YNtyo9B61ltwxZMHWQvP-141" style="edgeStyle=none;curved=1;rounded=0;orthogonalLoop=1;jettySize=auto;html=1;exitX=0.5;exitY=1;exitDx=0;exitDy=0;entryX=0.5;entryY=0;entryDx=0;entryDy=0;fontSize=12;startSize=8;endSize=8;" edge="1" parent="YNtyo9B61ltwxZMHWQvP-34" source="YNtyo9B61ltwxZMHWQvP-50" target="YNtyo9B61ltwxZMHWQvP-65">
          <mxGeometry relative="1" as="geometry" />
        </mxCell>
        <mxCell id="YNtyo9B61ltwxZMHWQvP-50" value="ซื้อหรือไม่" style="rhombus;whiteSpace=wrap;html=1;" vertex="1" parent="YNtyo9B61ltwxZMHWQvP-34">
          <mxGeometry x="332.5" y="810" width="115" height="120" as="geometry" />
        </mxCell>
        <mxCell id="YNtyo9B61ltwxZMHWQvP-51" value="no" style="text;html=1;align=center;verticalAlign=middle;whiteSpace=wrap;rounded=0;" vertex="1" parent="YNtyo9B61ltwxZMHWQvP-34">
          <mxGeometry x="290" y="820" width="60" height="30" as="geometry" />
        </mxCell>
        <mxCell id="YNtyo9B61ltwxZMHWQvP-138" style="edgeStyle=none;curved=1;rounded=0;orthogonalLoop=1;jettySize=auto;html=1;exitX=0.5;exitY=1;exitDx=0;exitDy=0;fontSize=12;startSize=8;endSize=8;" edge="1" parent="YNtyo9B61ltwxZMHWQvP-34" source="YNtyo9B61ltwxZMHWQvP-53" target="YNtyo9B61ltwxZMHWQvP-137">
          <mxGeometry relative="1" as="geometry" />
        </mxCell>
        <mxCell id="YNtyo9B61ltwxZMHWQvP-53" value="แสดงรายการสินค้าประเภทขนมและราคา" style="whiteSpace=wrap;html=1;" vertex="1" parent="YNtyo9B61ltwxZMHWQvP-34">
          <mxGeometry x="460" y="470" width="120" height="60" as="geometry" />
        </mxCell>
        <mxCell id="YNtyo9B61ltwxZMHWQvP-58" style="edgeStyle=orthogonalEdgeStyle;rounded=0;orthogonalLoop=1;jettySize=auto;html=1;entryX=0.5;entryY=0;entryDx=0;entryDy=0;" edge="1" parent="YNtyo9B61ltwxZMHWQvP-34" source="YNtyo9B61ltwxZMHWQvP-59" target="YNtyo9B61ltwxZMHWQvP-41">
          <mxGeometry relative="1" as="geometry" />
        </mxCell>
        <mxCell id="YNtyo9B61ltwxZMHWQvP-59" value="เลือกประเภทสินค้า" style="rounded=0;whiteSpace=wrap;html=1;" vertex="1" parent="YNtyo9B61ltwxZMHWQvP-34">
          <mxGeometry x="370.88" y="230" width="120" height="60" as="geometry" />
        </mxCell>
        <mxCell id="YNtyo9B61ltwxZMHWQvP-144" style="edgeStyle=none;curved=1;rounded=0;orthogonalLoop=1;jettySize=auto;html=1;exitX=0.5;exitY=1;exitDx=0;exitDy=0;entryX=0.5;entryY=0;entryDx=0;entryDy=0;fontSize=12;startSize=8;endSize=8;" edge="1" parent="YNtyo9B61ltwxZMHWQvP-34" source="YNtyo9B61ltwxZMHWQvP-62" target="YNtyo9B61ltwxZMHWQvP-50">
          <mxGeometry relative="1" as="geometry" />
        </mxCell>
        <mxCell id="YNtyo9B61ltwxZMHWQvP-62" value="" style="ellipse;whiteSpace=wrap;html=1;aspect=fixed;" vertex="1" parent="YNtyo9B61ltwxZMHWQvP-34">
          <mxGeometry x="393.25" y="730" width="45" height="45" as="geometry" />
        </mxCell>
        <mxCell id="YNtyo9B61ltwxZMHWQvP-63" value="" style="edgeStyle=orthogonalEdgeStyle;rounded=0;orthogonalLoop=1;jettySize=auto;html=1;" edge="1" parent="YNtyo9B61ltwxZMHWQvP-34" source="YNtyo9B61ltwxZMHWQvP-65">
          <mxGeometry relative="1" as="geometry">
            <mxPoint x="415" y="1120" as="targetPoint" />
          </mxGeometry>
        </mxCell>
        <mxCell id="YNtyo9B61ltwxZMHWQvP-64" style="edgeStyle=orthogonalEdgeStyle;rounded=0;orthogonalLoop=1;jettySize=auto;html=1;entryX=0;entryY=0.5;entryDx=0;entryDy=0;" edge="1" parent="YNtyo9B61ltwxZMHWQvP-34" source="YNtyo9B61ltwxZMHWQvP-65" target="YNtyo9B61ltwxZMHWQvP-38">
          <mxGeometry relative="1" as="geometry">
            <Array as="points">
              <mxPoint x="67" y="1035" />
              <mxPoint x="67" y="160" />
            </Array>
          </mxGeometry>
        </mxCell>
        <mxCell id="YNtyo9B61ltwxZMHWQvP-65" value="เลือกสินค้าต่อหรือไม่" style="rhombus;whiteSpace=wrap;html=1;" vertex="1" parent="YNtyo9B61ltwxZMHWQvP-34">
          <mxGeometry x="352.5" y="980" width="125" height="110" as="geometry" />
        </mxCell>
        <mxCell id="YNtyo9B61ltwxZMHWQvP-66" value="yes" style="text;html=1;align=center;verticalAlign=middle;whiteSpace=wrap;rounded=0;" vertex="1" parent="YNtyo9B61ltwxZMHWQvP-34">
          <mxGeometry x="411.75" y="930" width="60" height="30" as="geometry" />
        </mxCell>
        <mxCell id="YNtyo9B61ltwxZMHWQvP-68" value="" style="edgeStyle=orthogonalEdgeStyle;rounded=0;orthogonalLoop=1;jettySize=auto;html=1;exitX=0.529;exitY=0.961;exitDx=0;exitDy=0;exitPerimeter=0;" edge="1" parent="YNtyo9B61ltwxZMHWQvP-34" source="YNtyo9B61ltwxZMHWQvP-145" target="YNtyo9B61ltwxZMHWQvP-71">
          <mxGeometry relative="1" as="geometry">
            <mxPoint x="415" y="1180" as="sourcePoint" />
          </mxGeometry>
        </mxCell>
        <mxCell id="YNtyo9B61ltwxZMHWQvP-70" style="edgeStyle=orthogonalEdgeStyle;rounded=0;orthogonalLoop=1;jettySize=auto;html=1;entryX=0.5;entryY=0;entryDx=0;entryDy=0;" edge="1" parent="YNtyo9B61ltwxZMHWQvP-34" source="YNtyo9B61ltwxZMHWQvP-71" target="YNtyo9B61ltwxZMHWQvP-79">
          <mxGeometry relative="1" as="geometry" />
        </mxCell>
        <mxCell id="YNtyo9B61ltwxZMHWQvP-71" value="รวมราคาทั้งหมดของสินค้าที่เลือก&amp;nbsp;" style="whiteSpace=wrap;html=1;" vertex="1" parent="YNtyo9B61ltwxZMHWQvP-34">
          <mxGeometry x="327.5" y="1224" width="175" height="60" as="geometry" />
        </mxCell>
        <mxCell id="YNtyo9B61ltwxZMHWQvP-72" value="yes" style="text;html=1;align=center;verticalAlign=middle;whiteSpace=wrap;rounded=0;" vertex="1" parent="YNtyo9B61ltwxZMHWQvP-34">
          <mxGeometry x="296.5" y="1000" width="60" height="30" as="geometry" />
        </mxCell>
        <mxCell id="YNtyo9B61ltwxZMHWQvP-73" value="no" style="text;html=1;align=center;verticalAlign=middle;whiteSpace=wrap;rounded=0;" vertex="1" parent="YNtyo9B61ltwxZMHWQvP-34">
          <mxGeometry x="417.5" y="1090" width="60" height="30" as="geometry" />
        </mxCell>
        <mxCell id="YNtyo9B61ltwxZMHWQvP-74" value="&lt;span style=&quot;font-size: 15px;&quot;&gt;สิ้นสุด&lt;/span&gt;" style="strokeWidth=1;html=1;shape=mxgraph.flowchart.terminator;whiteSpace=wrap;" vertex="1" parent="YNtyo9B61ltwxZMHWQvP-34">
          <mxGeometry x="455.8800000000001" y="2747.5" width="130" height="60" as="geometry" />
        </mxCell>
        <mxCell id="YNtyo9B61ltwxZMHWQvP-143" style="edgeStyle=none;curved=1;rounded=0;orthogonalLoop=1;jettySize=auto;html=1;exitX=0.5;exitY=1;exitDx=0;exitDy=0;entryX=1;entryY=0.5;entryDx=0;entryDy=0;fontSize=12;startSize=8;endSize=8;" edge="1" parent="YNtyo9B61ltwxZMHWQvP-34" source="YNtyo9B61ltwxZMHWQvP-78" target="YNtyo9B61ltwxZMHWQvP-62">
          <mxGeometry relative="1" as="geometry" />
        </mxCell>
        <mxCell id="YNtyo9B61ltwxZMHWQvP-78" value="&lt;span style=&quot;text-align: center;&quot;&gt;เลือกสินค้าประเภทนํ้าที่ต้องการ&lt;/span&gt;" style="whiteSpace=wrap;html=1;align=left;" vertex="1" parent="YNtyo9B61ltwxZMHWQvP-34">
          <mxGeometry x="438.81" y="650" width="160.88" height="40" as="geometry" />
        </mxCell>
        <mxCell id="YNtyo9B61ltwxZMHWQvP-79" value="B" style="shape=offPageConnector;whiteSpace=wrap;html=1;direction=east;" vertex="1" parent="YNtyo9B61ltwxZMHWQvP-34">
          <mxGeometry x="375" y="1340" width="80" height="80" as="geometry" />
        </mxCell>
        <mxCell id="YNtyo9B61ltwxZMHWQvP-80" value="" style="edgeStyle=orthogonalEdgeStyle;rounded=0;orthogonalLoop=1;jettySize=auto;html=1;" edge="1" parent="YNtyo9B61ltwxZMHWQvP-34" target="YNtyo9B61ltwxZMHWQvP-83">
          <mxGeometry relative="1" as="geometry">
            <mxPoint x="426.54857142857145" y="1520" as="sourcePoint" />
          </mxGeometry>
        </mxCell>
        <mxCell id="YNtyo9B61ltwxZMHWQvP-81" value="B" style="shape=offPageConnector;whiteSpace=wrap;html=1;direction=east;" vertex="1" parent="YNtyo9B61ltwxZMHWQvP-34">
          <mxGeometry x="386.6300000000001" y="1440" width="80" height="80" as="geometry" />
        </mxCell>
        <mxCell id="YNtyo9B61ltwxZMHWQvP-82" value="" style="edgeStyle=orthogonalEdgeStyle;rounded=0;orthogonalLoop=1;jettySize=auto;html=1;" edge="1" parent="YNtyo9B61ltwxZMHWQvP-34" source="YNtyo9B61ltwxZMHWQvP-83" target="YNtyo9B61ltwxZMHWQvP-85">
          <mxGeometry relative="1" as="geometry" />
        </mxCell>
        <mxCell id="YNtyo9B61ltwxZMHWQvP-83" value="แสดงจำนวนเงินที่ต้องชำระ" style="shape=display;whiteSpace=wrap;html=1;" vertex="1" parent="YNtyo9B61ltwxZMHWQvP-34">
          <mxGeometry x="356.5" y="1540" width="140.25" height="70" as="geometry" />
        </mxCell>
        <mxCell id="YNtyo9B61ltwxZMHWQvP-84" style="edgeStyle=orthogonalEdgeStyle;rounded=0;orthogonalLoop=1;jettySize=auto;html=1;exitX=0.5;exitY=1;exitDx=0;exitDy=0;entryX=0.5;entryY=0;entryDx=0;entryDy=0;" edge="1" parent="YNtyo9B61ltwxZMHWQvP-34" source="YNtyo9B61ltwxZMHWQvP-85" target="YNtyo9B61ltwxZMHWQvP-88">
          <mxGeometry relative="1" as="geometry" />
        </mxCell>
        <mxCell id="YNtyo9B61ltwxZMHWQvP-85" value="เลือกประเภทการชำระ" style="rounded=0;whiteSpace=wrap;html=1;" vertex="1" parent="YNtyo9B61ltwxZMHWQvP-34">
          <mxGeometry x="366.6199999999999" y="1640" width="120" height="60" as="geometry" />
        </mxCell>
        <mxCell id="YNtyo9B61ltwxZMHWQvP-86" style="edgeStyle=orthogonalEdgeStyle;rounded=0;orthogonalLoop=1;jettySize=auto;html=1;exitX=0.5;exitY=1;exitDx=0;exitDy=0;entryX=0.5;entryY=0;entryDx=0;entryDy=0;" edge="1" parent="YNtyo9B61ltwxZMHWQvP-34" source="YNtyo9B61ltwxZMHWQvP-88" target="YNtyo9B61ltwxZMHWQvP-97">
          <mxGeometry relative="1" as="geometry" />
        </mxCell>
        <mxCell id="YNtyo9B61ltwxZMHWQvP-87" style="edgeStyle=orthogonalEdgeStyle;rounded=0;orthogonalLoop=1;jettySize=auto;html=1;exitX=1;exitY=0.5;exitDx=0;exitDy=0;entryX=0;entryY=0.5;entryDx=0;entryDy=0;" edge="1" parent="YNtyo9B61ltwxZMHWQvP-34" source="YNtyo9B61ltwxZMHWQvP-88">
          <mxGeometry relative="1" as="geometry">
            <mxPoint x="571.75" y="1785" as="targetPoint" />
          </mxGeometry>
        </mxCell>
        <mxCell id="YNtyo9B61ltwxZMHWQvP-88" value="ชำระด้วยเหรียญ/แบงค์" style="rhombus;whiteSpace=wrap;html=1;" vertex="1" parent="YNtyo9B61ltwxZMHWQvP-34">
          <mxGeometry x="366.6199999999999" y="1730" width="120" height="110" as="geometry" />
        </mxCell>
        <mxCell id="YNtyo9B61ltwxZMHWQvP-92" style="edgeStyle=orthogonalEdgeStyle;rounded=0;orthogonalLoop=1;jettySize=auto;html=1;exitX=0.5;exitY=1;exitDx=0;exitDy=0;entryX=0.5;entryY=0;entryDx=0;entryDy=0;" edge="1" parent="YNtyo9B61ltwxZMHWQvP-34" source="YNtyo9B61ltwxZMHWQvP-93">
          <mxGeometry relative="1" as="geometry">
            <mxPoint x="426.6199999999999" y="2050" as="targetPoint" />
          </mxGeometry>
        </mxCell>
        <mxCell id="YNtyo9B61ltwxZMHWQvP-93" value="&lt;span style=&quot;font-size: 12px;&quot;&gt;ตรวจสอบจำนวนเงิน&lt;/span&gt;" style="rounded=0;whiteSpace=wrap;html=1;" vertex="1" parent="YNtyo9B61ltwxZMHWQvP-34">
          <mxGeometry x="366.6199999999999" y="1950" width="120" height="60" as="geometry" />
        </mxCell>
        <mxCell id="YNtyo9B61ltwxZMHWQvP-94" style="edgeStyle=orthogonalEdgeStyle;rounded=0;orthogonalLoop=1;jettySize=auto;html=1;entryX=1;entryY=0.5;entryDx=0;entryDy=0;" edge="1" parent="YNtyo9B61ltwxZMHWQvP-34" source="YNtyo9B61ltwxZMHWQvP-95" target="YNtyo9B61ltwxZMHWQvP-103">
          <mxGeometry relative="1" as="geometry">
            <Array as="points">
              <mxPoint x="621.75" y="2280" />
            </Array>
          </mxGeometry>
        </mxCell>
        <mxCell id="YNtyo9B61ltwxZMHWQvP-95" value="โอนเงินสําเร็จ" style="rounded=0;whiteSpace=wrap;html=1;" vertex="1" parent="YNtyo9B61ltwxZMHWQvP-34">
          <mxGeometry x="561.75" y="2010" width="120" height="60" as="geometry" />
        </mxCell>
        <mxCell id="YNtyo9B61ltwxZMHWQvP-96" style="edgeStyle=orthogonalEdgeStyle;rounded=0;orthogonalLoop=1;jettySize=auto;html=1;entryX=0.5;entryY=0;entryDx=0;entryDy=0;" edge="1" parent="YNtyo9B61ltwxZMHWQvP-34" source="YNtyo9B61ltwxZMHWQvP-97" target="YNtyo9B61ltwxZMHWQvP-93">
          <mxGeometry relative="1" as="geometry" />
        </mxCell>
        <mxCell id="YNtyo9B61ltwxZMHWQvP-97" value="จ่ายเงิน" style="shape=parallelogram;perimeter=parallelogramPerimeter;whiteSpace=wrap;html=1;fixedSize=1;" vertex="1" parent="YNtyo9B61ltwxZMHWQvP-34">
          <mxGeometry x="366.6199999999999" y="1870" width="120" height="60" as="geometry" />
        </mxCell>
        <mxCell id="YNtyo9B61ltwxZMHWQvP-98" style="edgeStyle=orthogonalEdgeStyle;rounded=0;orthogonalLoop=1;jettySize=auto;html=1;entryX=0.5;entryY=0;entryDx=0;entryDy=0;" edge="1" parent="YNtyo9B61ltwxZMHWQvP-34" source="YNtyo9B61ltwxZMHWQvP-99" target="YNtyo9B61ltwxZMHWQvP-95">
          <mxGeometry relative="1" as="geometry" />
        </mxCell>
        <mxCell id="YNtyo9B61ltwxZMHWQvP-99" value="จ่ายเงิน" style="shape=parallelogram;perimeter=parallelogramPerimeter;whiteSpace=wrap;html=1;fixedSize=1;" vertex="1" parent="YNtyo9B61ltwxZMHWQvP-34">
          <mxGeometry x="561.75" y="1930" width="120" height="60" as="geometry" />
        </mxCell>
        <mxCell id="YNtyo9B61ltwxZMHWQvP-100" style="edgeStyle=orthogonalEdgeStyle;rounded=0;orthogonalLoop=1;jettySize=auto;html=1;exitX=0;exitY=0.5;exitDx=0;exitDy=0;entryX=1;entryY=0.5;entryDx=0;entryDy=0;" edge="1" parent="YNtyo9B61ltwxZMHWQvP-34" source="YNtyo9B61ltwxZMHWQvP-101" target="YNtyo9B61ltwxZMHWQvP-110">
          <mxGeometry relative="1" as="geometry">
            <mxPoint x="356.75" y="2110" as="targetPoint" />
          </mxGeometry>
        </mxCell>
        <mxCell id="YNtyo9B61ltwxZMHWQvP-101" value="จำนวนเงินเกินหรือไม่" style="rhombus;whiteSpace=wrap;html=1;" vertex="1" parent="YNtyo9B61ltwxZMHWQvP-34">
          <mxGeometry x="366.6199999999999" y="2050" width="120" height="120" as="geometry" />
        </mxCell>
        <mxCell id="YNtyo9B61ltwxZMHWQvP-102" style="edgeStyle=orthogonalEdgeStyle;rounded=0;orthogonalLoop=1;jettySize=auto;html=1;" edge="1" parent="YNtyo9B61ltwxZMHWQvP-34" source="YNtyo9B61ltwxZMHWQvP-103" target="YNtyo9B61ltwxZMHWQvP-119">
          <mxGeometry relative="1" as="geometry" />
        </mxCell>
        <mxCell id="YNtyo9B61ltwxZMHWQvP-103" value="" style="ellipse;whiteSpace=wrap;html=1;aspect=fixed;" vertex="1" parent="YNtyo9B61ltwxZMHWQvP-34">
          <mxGeometry x="501.75" y="2260" width="40" height="40" as="geometry" />
        </mxCell>
        <mxCell id="YNtyo9B61ltwxZMHWQvP-104" style="edgeStyle=orthogonalEdgeStyle;rounded=0;orthogonalLoop=1;jettySize=auto;html=1;exitX=1;exitY=0.5;exitDx=0;exitDy=0;entryX=0;entryY=0.5;entryDx=0;entryDy=0;entryPerimeter=0;" edge="1" parent="YNtyo9B61ltwxZMHWQvP-34" source="YNtyo9B61ltwxZMHWQvP-105" target="YNtyo9B61ltwxZMHWQvP-119">
          <mxGeometry relative="1" as="geometry" />
        </mxCell>
        <mxCell id="YNtyo9B61ltwxZMHWQvP-105" value="ทอนเงินให้ลูกค้าตามจำนวน" style="rounded=0;whiteSpace=wrap;html=1;" vertex="1" parent="YNtyo9B61ltwxZMHWQvP-34">
          <mxGeometry x="186.75" y="2447.5" width="110" height="60" as="geometry" />
        </mxCell>
        <mxCell id="YNtyo9B61ltwxZMHWQvP-106" style="edgeStyle=orthogonalEdgeStyle;rounded=0;orthogonalLoop=1;jettySize=auto;html=1;exitX=0.5;exitY=1;exitDx=0;exitDy=0;entryX=0.5;entryY=0;entryDx=0;entryDy=0;" edge="1" parent="YNtyo9B61ltwxZMHWQvP-34" source="YNtyo9B61ltwxZMHWQvP-107" target="YNtyo9B61ltwxZMHWQvP-120">
          <mxGeometry relative="1" as="geometry" />
        </mxCell>
        <mxCell id="YNtyo9B61ltwxZMHWQvP-107" value="&lt;span style=&quot;font-size: 12px;&quot;&gt;ชำระเงินเสร็จสิ้น&lt;/span&gt;" style="rounded=0;whiteSpace=wrap;html=1;" vertex="1" parent="YNtyo9B61ltwxZMHWQvP-34">
          <mxGeometry x="460.8800000000001" y="2561.5" width="120" height="60" as="geometry" />
        </mxCell>
        <mxCell id="YNtyo9B61ltwxZMHWQvP-108" style="edgeStyle=orthogonalEdgeStyle;rounded=0;orthogonalLoop=1;jettySize=auto;html=1;entryX=0;entryY=0.5;entryDx=0;entryDy=0;exitX=0.5;exitY=1;exitDx=0;exitDy=0;" edge="1" parent="YNtyo9B61ltwxZMHWQvP-34" source="YNtyo9B61ltwxZMHWQvP-101" target="YNtyo9B61ltwxZMHWQvP-103">
          <mxGeometry relative="1" as="geometry">
            <mxPoint x="566.75" y="2222" as="targetPoint" />
            <Array as="points">
              <mxPoint x="426.75" y="2280" />
            </Array>
          </mxGeometry>
        </mxCell>
        <mxCell id="YNtyo9B61ltwxZMHWQvP-109" value="" style="edgeStyle=orthogonalEdgeStyle;rounded=0;orthogonalLoop=1;jettySize=auto;html=1;" edge="1" parent="YNtyo9B61ltwxZMHWQvP-34" source="YNtyo9B61ltwxZMHWQvP-110" target="YNtyo9B61ltwxZMHWQvP-112">
          <mxGeometry relative="1" as="geometry" />
        </mxCell>
        <mxCell id="YNtyo9B61ltwxZMHWQvP-110" value="&lt;span style=&quot;font-size: 12px;&quot;&gt;คำนวณเงินที่เกินมา&lt;/span&gt;" style="rounded=0;whiteSpace=wrap;html=1;" vertex="1" parent="YNtyo9B61ltwxZMHWQvP-34">
          <mxGeometry x="181.75" y="2080" width="120" height="60" as="geometry" />
        </mxCell>
        <mxCell id="YNtyo9B61ltwxZMHWQvP-111" style="edgeStyle=orthogonalEdgeStyle;rounded=0;orthogonalLoop=1;jettySize=auto;html=1;exitX=0.5;exitY=1;exitDx=0;exitDy=0;entryX=0.5;entryY=0;entryDx=0;entryDy=0;" edge="1" parent="YNtyo9B61ltwxZMHWQvP-34" source="YNtyo9B61ltwxZMHWQvP-112" target="YNtyo9B61ltwxZMHWQvP-114">
          <mxGeometry relative="1" as="geometry" />
        </mxCell>
        <mxCell id="YNtyo9B61ltwxZMHWQvP-112" value="&lt;span style=&quot;font-size: 12px;&quot;&gt;คำนวณ&lt;/span&gt;เหรียญ/แบงค์&lt;span style=&quot;font-size: 12px;&quot;&gt;ในเครื่อง&lt;/span&gt;" style="rounded=0;whiteSpace=wrap;html=1;" vertex="1" parent="YNtyo9B61ltwxZMHWQvP-34">
          <mxGeometry x="181.75" y="2190" width="120" height="60" as="geometry" />
        </mxCell>
        <mxCell id="YNtyo9B61ltwxZMHWQvP-113" value="" style="edgeStyle=orthogonalEdgeStyle;rounded=0;orthogonalLoop=1;jettySize=auto;html=1;" edge="1" parent="YNtyo9B61ltwxZMHWQvP-34" source="YNtyo9B61ltwxZMHWQvP-114" target="YNtyo9B61ltwxZMHWQvP-105">
          <mxGeometry relative="1" as="geometry" />
        </mxCell>
        <mxCell id="YNtyo9B61ltwxZMHWQvP-114" value="&lt;span style=&quot;font-size: 12px;&quot;&gt;มี&lt;/span&gt;เหรียญ/แบงค์ในเครื่องหรือไม่" style="rhombus;whiteSpace=wrap;html=1;" vertex="1" parent="YNtyo9B61ltwxZMHWQvP-34">
          <mxGeometry x="146.75" y="2285" width="190" height="115" as="geometry" />
        </mxCell>
        <mxCell id="YNtyo9B61ltwxZMHWQvP-118" style="edgeStyle=orthogonalEdgeStyle;rounded=0;orthogonalLoop=1;jettySize=auto;html=1;entryX=0.5;entryY=0;entryDx=0;entryDy=0;" edge="1" parent="YNtyo9B61ltwxZMHWQvP-34" source="YNtyo9B61ltwxZMHWQvP-119" target="YNtyo9B61ltwxZMHWQvP-107">
          <mxGeometry relative="1" as="geometry" />
        </mxCell>
        <mxCell id="YNtyo9B61ltwxZMHWQvP-119" value="แสดงสรุปสินค้าได้ยอดเงินทั้งหมด" style="shape=display;whiteSpace=wrap;html=1;" vertex="1" parent="YNtyo9B61ltwxZMHWQvP-34">
          <mxGeometry x="439.5" y="2430" width="164.5" height="95" as="geometry" />
        </mxCell>
        <mxCell id="YNtyo9B61ltwxZMHWQvP-120" value="มอบสินค้าให้กับลูกค้า" style="rounded=0;whiteSpace=wrap;html=1;" vertex="1" parent="YNtyo9B61ltwxZMHWQvP-34">
          <mxGeometry x="460.8800000000001" y="2647.5" width="120" height="60" as="geometry" />
        </mxCell>
        <mxCell id="YNtyo9B61ltwxZMHWQvP-121" style="edgeStyle=orthogonalEdgeStyle;rounded=0;orthogonalLoop=1;jettySize=auto;html=1;entryX=0.5;entryY=0;entryDx=0;entryDy=0;entryPerimeter=0;" edge="1" parent="YNtyo9B61ltwxZMHWQvP-34" source="YNtyo9B61ltwxZMHWQvP-120" target="YNtyo9B61ltwxZMHWQvP-74">
          <mxGeometry relative="1" as="geometry" />
        </mxCell>
        <mxCell id="YNtyo9B61ltwxZMHWQvP-122" value="yes" style="text;html=1;align=center;verticalAlign=middle;whiteSpace=wrap;rounded=0;" vertex="1" parent="YNtyo9B61ltwxZMHWQvP-34">
          <mxGeometry x="425.75" y="1830" width="60" height="30" as="geometry" />
        </mxCell>
        <mxCell id="YNtyo9B61ltwxZMHWQvP-124" value="no" style="text;html=1;align=center;verticalAlign=middle;whiteSpace=wrap;rounded=0;" vertex="1" parent="YNtyo9B61ltwxZMHWQvP-34">
          <mxGeometry x="445.75" y="2250" width="60" height="30" as="geometry" />
        </mxCell>
        <mxCell id="YNtyo9B61ltwxZMHWQvP-125" value="yes" style="text;html=1;align=center;verticalAlign=middle;whiteSpace=wrap;rounded=0;" vertex="1" parent="YNtyo9B61ltwxZMHWQvP-34">
          <mxGeometry x="541.75" y="2250" width="60" height="30" as="geometry" />
        </mxCell>
        <mxCell id="YNtyo9B61ltwxZMHWQvP-126" value="yes" style="text;html=1;align=center;verticalAlign=middle;whiteSpace=wrap;rounded=0;" vertex="1" parent="YNtyo9B61ltwxZMHWQvP-34">
          <mxGeometry x="241.75" y="2390" width="60" height="30" as="geometry" />
        </mxCell>
        <mxCell id="YNtyo9B61ltwxZMHWQvP-127" value="yes" style="text;html=1;align=center;verticalAlign=middle;whiteSpace=wrap;rounded=0;" vertex="1" parent="YNtyo9B61ltwxZMHWQvP-34">
          <mxGeometry x="326.63" y="2070" width="60" height="30" as="geometry" />
        </mxCell>
        <mxCell id="YNtyo9B61ltwxZMHWQvP-128" value="no" style="text;html=1;align=center;verticalAlign=middle;whiteSpace=wrap;rounded=0;" vertex="1" parent="YNtyo9B61ltwxZMHWQvP-34">
          <mxGeometry x="379.5" y="2350" width="60" height="30" as="geometry" />
        </mxCell>
        <mxCell id="YNtyo9B61ltwxZMHWQvP-129" value="no" style="text;html=1;align=center;verticalAlign=middle;whiteSpace=wrap;rounded=0;" vertex="1" parent="YNtyo9B61ltwxZMHWQvP-34">
          <mxGeometry x="490.8800000000001" y="1750" width="60" height="30" as="geometry" />
        </mxCell>
        <mxCell id="YNtyo9B61ltwxZMHWQvP-132" value="สินค้าประเภทขนม" style="rounded=0;whiteSpace=wrap;html=1;" vertex="1" parent="YNtyo9B61ltwxZMHWQvP-34">
          <mxGeometry x="441.75" y="350" width="120" height="60" as="geometry" />
        </mxCell>
        <mxCell id="YNtyo9B61ltwxZMHWQvP-136" style="edgeStyle=none;curved=1;rounded=0;orthogonalLoop=1;jettySize=auto;html=1;exitX=0;exitY=0;exitDx=123.75;exitDy=80;exitPerimeter=0;fontSize=12;startSize=8;endSize=8;" edge="1" parent="YNtyo9B61ltwxZMHWQvP-34" source="YNtyo9B61ltwxZMHWQvP-134">
          <mxGeometry relative="1" as="geometry">
            <mxPoint x="305.1428571428571" y="650" as="targetPoint" />
          </mxGeometry>
        </mxCell>
        <mxCell id="YNtyo9B61ltwxZMHWQvP-134" value="&lt;div style=&quot;text-align: left;&quot;&gt;&lt;span style=&quot;white-space: pre;&quot;&gt;&#x9;&lt;/span&gt;- โค้ก กระป๋องละ 10 บาท&lt;span style=&quot;white-space: pre;&quot;&gt;&#x9;&#x9;&lt;/span&gt;&lt;/div&gt;&lt;div style=&quot;text-align: left;&quot;&gt;&lt;span style=&quot;white-space: pre;&quot;&gt;&#x9;&lt;/span&gt;- น้ำเขียว กระป๋องละ 12 บาท&lt;span style=&quot;white-space: pre;&quot;&gt;&#x9;&#x9;&lt;/span&gt;&lt;/div&gt;&lt;div style=&quot;text-align: left;&quot;&gt;&lt;span style=&quot;background-color: transparent; color: light-dark(rgb(0, 0, 0), rgb(255, 255, 255));&quot;&gt;&lt;span style=&quot;white-space: pre;&quot;&gt;&#x9;&lt;/span&gt;- อเมริกาโน่ 30 บาท&lt;/span&gt;&lt;span style=&quot;background-color: transparent; color: light-dark(rgb(0, 0, 0), rgb(255, 255, 255)); white-space: pre;&quot;&gt;&#x9;&lt;/span&gt;&lt;/div&gt;&lt;div style=&quot;text-align: left;&quot;&gt;&lt;span style=&quot;background-color: transparent; color: light-dark(rgb(0, 0, 0), rgb(255, 255, 255));&quot;&gt;&lt;span style=&quot;white-space: pre;&quot;&gt;&#x9;&lt;/span&gt;- ลาเต้ หวานเจี๊ยบ 35 บาท&lt;/span&gt;&lt;/div&gt;" style="shape=display;whiteSpace=wrap;html=1;" vertex="1" parent="YNtyo9B61ltwxZMHWQvP-34">
          <mxGeometry x="181.75" y="520" width="230" height="80" as="geometry" />
        </mxCell>
        <mxCell id="YNtyo9B61ltwxZMHWQvP-135" style="edgeStyle=none;curved=1;rounded=0;orthogonalLoop=1;jettySize=auto;html=1;exitX=0.5;exitY=1;exitDx=0;exitDy=0;entryX=0.592;entryY=0.014;entryDx=0;entryDy=0;entryPerimeter=0;fontSize=12;startSize=8;endSize=8;" edge="1" parent="YNtyo9B61ltwxZMHWQvP-34" source="YNtyo9B61ltwxZMHWQvP-46" target="YNtyo9B61ltwxZMHWQvP-134">
          <mxGeometry relative="1" as="geometry" />
        </mxCell>
        <mxCell id="YNtyo9B61ltwxZMHWQvP-139" style="edgeStyle=none;curved=1;rounded=0;orthogonalLoop=1;jettySize=auto;html=1;exitX=0;exitY=0;exitDx=95;exitDy=70;exitPerimeter=0;entryX=0.5;entryY=0;entryDx=0;entryDy=0;fontSize=12;startSize=8;endSize=8;" edge="1" parent="YNtyo9B61ltwxZMHWQvP-34" source="YNtyo9B61ltwxZMHWQvP-137" target="YNtyo9B61ltwxZMHWQvP-78">
          <mxGeometry relative="1" as="geometry" />
        </mxCell>
        <mxCell id="YNtyo9B61ltwxZMHWQvP-137" value="&lt;div style=&quot;text-align: left;&quot;&gt;&lt;div&gt;- เมล็ดทานตะวัน 13 บาท&lt;/div&gt;&lt;div&gt;- ถั่วแปบ 20 บาท&lt;/div&gt;&lt;div&gt;- จิ้นส้มหมก 15 บาท&lt;/div&gt;&lt;/div&gt;" style="shape=display;whiteSpace=wrap;html=1;" vertex="1" parent="YNtyo9B61ltwxZMHWQvP-34">
          <mxGeometry x="417.5" y="559" width="180" height="70" as="geometry" />
        </mxCell>
        <mxCell id="YNtyo9B61ltwxZMHWQvP-142" style="edgeStyle=none;curved=1;rounded=0;orthogonalLoop=1;jettySize=auto;html=1;exitX=0.5;exitY=1;exitDx=0;exitDy=0;entryX=0;entryY=0.5;entryDx=0;entryDy=0;fontSize=12;startSize=8;endSize=8;" edge="1" parent="YNtyo9B61ltwxZMHWQvP-34" source="YNtyo9B61ltwxZMHWQvP-140" target="YNtyo9B61ltwxZMHWQvP-62">
          <mxGeometry relative="1" as="geometry" />
        </mxCell>
        <mxCell id="YNtyo9B61ltwxZMHWQvP-140" value="&lt;span style=&quot;text-align: center;&quot;&gt;เลือกสินค้าประเภทนํ้าที่ต้องการ&lt;/span&gt;" style="whiteSpace=wrap;html=1;align=left;" vertex="1" parent="YNtyo9B61ltwxZMHWQvP-34">
          <mxGeometry x="234.56" y="650" width="160.88" height="40" as="geometry" />
        </mxCell>
        <mxCell id="YNtyo9B61ltwxZMHWQvP-145" value="แสดงรายการทั้งหมดที่ลูกค้าเลือก" style="shape=display;whiteSpace=wrap;html=1;" vertex="1" parent="YNtyo9B61ltwxZMHWQvP-34">
          <mxGeometry x="296.75" y="1120" width="220" height="40" as="geometry" />
        </mxCell>
        <mxCell id="YNtyo9B61ltwxZMHWQvP-149" value="" style="edgeStyle=none;curved=1;rounded=0;orthogonalLoop=1;jettySize=auto;html=1;fontSize=12;startSize=8;endSize=8;" edge="1" parent="YNtyo9B61ltwxZMHWQvP-34" source="YNtyo9B61ltwxZMHWQvP-147" target="YNtyo9B61ltwxZMHWQvP-148">
          <mxGeometry relative="1" as="geometry" />
        </mxCell>
        <mxCell id="YNtyo9B61ltwxZMHWQvP-147" value="โอนเงิน" style="rounded=0;whiteSpace=wrap;html=1;" vertex="1" parent="YNtyo9B61ltwxZMHWQvP-34">
          <mxGeometry x="571.75" y="1755" width="120" height="60" as="geometry" />
        </mxCell>
        <mxCell id="YNtyo9B61ltwxZMHWQvP-151" style="edgeStyle=none;curved=1;rounded=0;orthogonalLoop=1;jettySize=auto;html=1;exitX=0;exitY=0;exitDx=66.25;exitDy=60;exitPerimeter=0;entryX=0.5;entryY=0;entryDx=0;entryDy=0;fontSize=12;startSize=8;endSize=8;" edge="1" parent="YNtyo9B61ltwxZMHWQvP-34" source="YNtyo9B61ltwxZMHWQvP-148" target="YNtyo9B61ltwxZMHWQvP-99">
          <mxGeometry relative="1" as="geometry" />
        </mxCell>
        <mxCell id="YNtyo9B61ltwxZMHWQvP-148" value="เเสดง qr code" style="shape=display;whiteSpace=wrap;html=1;" vertex="1" parent="YNtyo9B61ltwxZMHWQvP-34">
          <mxGeometry x="551.75" y="1850" width="130" height="60" as="geometry" />
        </mxCell>
        <mxCell id="YNtyo9B61ltwxZMHWQvP-154" style="edgeStyle=none;curved=1;rounded=0;orthogonalLoop=1;jettySize=auto;html=1;exitX=1;exitY=0.5;exitDx=0;exitDy=0;entryX=0.234;entryY=0.117;entryDx=0;entryDy=0;entryPerimeter=0;fontSize=12;startSize=8;endSize=8;" edge="1" parent="YNtyo9B61ltwxZMHWQvP-34" source="YNtyo9B61ltwxZMHWQvP-114" target="YNtyo9B61ltwxZMHWQvP-119">
          <mxGeometry relative="1" as="geometry" />
        </mxCell>
        <mxCell id="YNtyo9B61ltwxZMHWQvP-130" value="&lt;font data-font-src=&quot;https://fonts.googleapis.com/css?family=Sarabun&quot; face=&quot;Sarabun&quot;&gt;โจทย์ปัญหา&lt;/font&gt;" style="swimlane;whiteSpace=wrap;html=1;" vertex="1" parent="1">
          <mxGeometry x="-720" y="320" width="640" height="240" as="geometry" />
        </mxCell>
        <mxCell id="YNtyo9B61ltwxZMHWQvP-131" value="&lt;font data-font-src=&quot;https://fonts.googleapis.com/css?family=Sarabun&quot; face=&quot;Sarabun&quot; style=&quot;font-size: 14px;&quot;&gt;จงเขียน Flowchart เพื่อแสดงขั้นตอนการทำงาน ของเครื่องขายน้ำอัตโนมัติที่ชื่อว่า &quot;ตะพาบลอย&quot;&lt;br&gt;โดยจะต้องมีสินค้าดังนี้&lt;br&gt;&lt;u&gt;ประเภทน้ำ&lt;span style=&quot;white-space: pre;&quot;&gt;&#x9;&lt;/span&gt;&lt;span style=&quot;white-space: pre;&quot;&gt;&#x9;&lt;/span&gt;&lt;span style=&quot;white-space: pre;&quot;&gt;&#x9;&lt;/span&gt;&lt;span style=&quot;white-space: pre;&quot;&gt;&#x9;&lt;/span&gt;&lt;span style=&quot;white-space: pre;&quot;&gt;&#x9;&lt;/span&gt;&lt;span style=&quot;white-space: pre;&quot;&gt;&#x9;&lt;span style=&quot;white-space: pre;&quot;&gt;&#x9;&lt;/span&gt;ข&lt;/span&gt;นม&lt;/u&gt;&lt;br&gt;&lt;span style=&quot;white-space: pre;&quot;&gt;&#x9;&lt;/span&gt;- โค้ก กระป๋องละ 10 บาท&lt;span style=&quot;white-space: pre;&quot;&gt;&#x9;&lt;/span&gt;&lt;span style=&quot;white-space: pre;&quot;&gt;&#x9;&lt;/span&gt;&lt;span style=&quot;white-space: pre;&quot;&gt;&#x9;&lt;/span&gt;&lt;span style=&quot;white-space: pre;&quot;&gt;&#x9;&lt;/span&gt;- เมล็ดทานตะวัน 13 บาท&lt;br&gt;&lt;span style=&quot;white-space: pre;&quot;&gt;&#x9;&lt;/span&gt;- น้ำเขียว กระป๋องละ 12 บาท&lt;span style=&quot;white-space: pre;&quot;&gt;&#x9;&lt;/span&gt;&lt;span style=&quot;white-space: pre;&quot;&gt;&#x9;&lt;/span&gt;&lt;span style=&quot;white-space: pre;&quot;&gt;&#x9;&lt;/span&gt;- ถั่วแปบ 20 บาท&lt;br&gt;&lt;span style=&quot;white-space: pre;&quot;&gt;&#x9;&lt;/span&gt;- อเมริกาโน่ 30 บาท&lt;span style=&quot;white-space: pre;&quot;&gt;&#x9;&lt;/span&gt;&lt;span style=&quot;white-space: pre;&quot;&gt;&#x9;&lt;/span&gt;&lt;span style=&quot;white-space: pre;&quot;&gt;&#x9;&lt;/span&gt;&lt;span style=&quot;white-space: pre;&quot;&gt;&#x9;&lt;/span&gt;&lt;span style=&quot;white-space: pre;&quot;&gt;&#x9;&lt;/span&gt;- จิ้นส้มหมก 15 บาท&lt;br&gt;&lt;span style=&quot;white-space: pre;&quot;&gt;&#x9;&lt;/span&gt;- ลาเต้ หวานเจี๊ยบ 35 บาท&lt;span style=&quot;white-space: pre;&quot;&gt;&#x9;&lt;/span&gt;&lt;br&gt;&lt;br&gt;&lt;u&gt;สิ่งที่ระบบควรจะทำได้&lt;/u&gt;&lt;br&gt;&lt;span style=&quot;white-space: pre;&quot;&gt;&#x9;&lt;/span&gt;- ลูกค้าเลือกสินค้า, ระบบจะต้องรวมยอดขาย และรวมรายการสินค้าทั้งหมดที่ลูกค้าเลือก&lt;br&gt;&lt;span style=&quot;white-space: pre;&quot;&gt;&#x9;&lt;/span&gt;- สรุปยอดว่าเหลือเงินในตู้อีกเท่าไหร่ เหลือเหรียญอะไรบ้าง? ธนบัตรอะไรบ้าง? อย่างละเท่าไหร่?&lt;br&gt;&lt;br&gt;&lt;br&gt;&lt;/font&gt;" style="text;html=1;align=left;verticalAlign=middle;resizable=0;points=[];autosize=1;strokeColor=none;fillColor=none;fontSize=14;" vertex="1" parent="YNtyo9B61ltwxZMHWQvP-130">
          <mxGeometry x="25" y="30" width="580" height="240" as="geometry" />
        </mxCell>
      </root>
    </mxGraphModel>
  </diagram>
</mxfile>
